#!OML:ASF I:\Actors\actors\Patient Classification 1\Patient 1\Session 1\Subject1.ASF
:FULLY-SPECIFIED
:DEGREES
284
root -0.35919 17.4953 9.29591 8.38201 5.78641 -9.44974
lowerback 3.7281 1.48125 16.075
upperback -9.04739 3.64402 0.572139
thorax -11.3001 0.368046 -8.81032
lowerneck -14.7171 4.52072 3.80975
upperneck 31.3117 5.21355 1.28107
head 12.9851 2.97176 0.651059
rclavicle -2.81156e-014 -1.63997e-014
rhumerus -55.0338 53.6113 -102.614
rradius 112.233
rwrist -46.6791
rhand 8.95661 -72.9597
rfingers 7.12502
rthumb 34.1361 -260.287
lclavicle -2.81156e-014 -1.63997e-014
lhumerus -59.4856 -40.9939 107.566
lradius 92.2147
lwrist 87.477
lhand -42.2953 21.8788
lfingers 7.12502
lthumb -15.1796 51.302
rfemur -2.97442 23.0921 30.9805
rtibia 2.17626
rfoot -13.4148 -27.9597
rtoes 9.61321
lfemur 0.308476 -39.1851 -3.56177
ltibia -3.83955
lfoot -10.645 43.5241
ltoes -7.3245
285
root -0.371865 17.4969 9.28582 8.39193 5.57898 -9.53049
lowerback 3.90501 1.46456 16.1221
upperback -9.11563 3.6744 0.629719
thorax -11.486 0.361073 -8.78591
lowerneck -14.7552 4.58513 3.76428
upperneck 31.3085 5.25945 1.45883
head 12.9851 3.01004 0.735362
rclavicle 2.88735e-014 -2.72335e-014
rhumerus -55.3458 53.2854 -102.826
rradius 112.3
rwrist -46.8118
rhand 9.19845 -73.3333
rfingers 7.12502
rthumb 34.3657 -259.965
lclavicle 2.88735e-014 -2.72335e-014
lhumerus -59.8757 -40.7289 107.665
lradius 92.4155
lwrist 87.4834
lhand -42.0355 21.5565
lfingers 7.12502
lthumb -14.9294 50.9984
rfemur -3.11333 23.055 31.0701
rtibia 2.29496
rfoot -13.3622 -27.7152
rtoes 9.48498
lfemur 0.318326 -39.093 -3.41869
ltibia -3.83246
lfoot -10.7135 43.6212
ltoes -7.25419
286
root -0.382673 17.4976 9.2768 8.40183 5.3134 -9.56
lowerback 4.0903 1.46055 16.0913
upperback -9.16363 3.7116 0.667419
thorax -11.6502 0.366158 -8.74156
lowerneck -14.776 4.65544 3.80826
upperneck 31.2401 5.33317 1.4984
head 12.9625 3.05223 0.75359
rclavicle 1.11319e-014 -1.5704e-014
rhumerus -55.7168 53.0403 -103.204
rradius 112.44
rwrist -47.0493
rhand 8.50749 -73.5333
rfingers 7.12502
rthumb 33.7094 -259.619
lclavicle 1.11319e-014 -1.5704e-014
lhumerus -60.1281 -40.4262 107.658
lradius 92.601
lwrist 87.5074
lhand -41.7293 21.2613
lfingers 7.12502
lthumb -14.6343 50.7249
rfemur -3.26592 22.9487 31.0906
rtibia 2.44351
rfoot -13.2631 -27.3704
rtoes 9.07888
lfemur 0.386177 -39.1317 -3.40489
ltibia -3.79714
lfoot -10.9901 43.8672
ltoes -6.85266
287
root -0.391568 17.4976 9.2693 8.39669 5.01767 -9.51895
lowerback 4.25325 1.46292 15.9617
upperback -9.17716 3.73752 0.695169
thorax -11.7622 0.380849 -8.65054
lowerneck -14.7374 4.73701 3.96507
upperneck 31.0727 5.4501 1.3605
head 12.8971 3.10274 0.68717
rclavicle -2.82771e-014 3.49861e-014
rhumerus -56.0763 52.8879 -103.668
rradius 112.637
rwrist -47.4395
rhand 7.05736 -73.4222
rfingers 7.12502
rthumb 32.3303 -259.439
lclavicle -2.82771e-014 3.49861e-014
lhumerus -60.3126 -40.0815 107.608
lradius 92.8294
lwrist 87.6271
lhand -41.7862 21.0038
lfingers 7.12502
lthumb -14.6892 50.4635
rfemur -3.37847 22.6478 31.0133
rtibia 2.54152
rfoot -13.0881 -26.8523
rtoes 8.53604
lfemur 0.553058 -39.3014 -3.5648
ltibia -3.76696
lfoot -11.3005 44.2441
ltoes -6.48216
288
root -0.399621 17.4977 9.26215 8.39311 4.79844 -9.51234
lowerback 4.40948 1.46554 15.8575
upperback -9.19549 3.76621 0.7297
thorax -11.8757 0.394821 -8.56612
lowerneck -14.7399 4.79548 4.1024
upperneck 30.9282 5.54002 1.21409
head 12.8495 3.13784 0.61861
rclavicle 3.04389e-015 3.51849e-014
rhumerus -56.3443 52.6781 -103.998
rradius 112.775
rwrist -47.6439
rhand 6.28998 -73.1843
rfingers 7.12502
rthumb 31.5996 -259.53
lclavicle 3.04389e-015 3.51849e-014
lhumerus -60.5515 -39.7564 107.619
lradius 93.1126
lwrist 87.7086
lhand -42.044 20.9068
lfingers 7.12502
lthumb -14.9375 50.3482
rfemur -3.47929 22.369 30.9813
rtibia 2.62128
rfoot -12.927 -26.4397
rtoes 7.98635
lfemur 0.637488 -39.3009 -3.62467
ltibia -3.7148
lfoot -11.4065 44.4009
ltoes -6.54714
289
root -0.407438 17.4966 9.256 8.42085 4.63219 -9.56878
lowerback 4.52921 1.47238 15.8053
upperback -9.21472 3.79975 0.772298
thorax -11.967 0.408996 -8.49999
lowerneck -14.7957 4.83812 4.15033
upperneck 30.8009 5.60791 1.13597
head 12.8143 3.16167 0.589912
rclavicle 3.39922e-014 -5.36719e-014
rhumerus -56.5023 52.4089 -104.216
rradius 112.836
rwrist -47.6846
rhand 6.07971 -72.9202
rfingers 7.12502
rthumb 31.3993 -259.755
lclavicle 3.39922e-014 -5.36719e-014
lhumerus -60.7722 -39.4763 107.633
lradius 93.3963
lwrist 87.6899
lhand -42.1954 21.05
lfingers 7.12502
lthumb -15.0834 50.4805
rfemur -3.59998 22.2378 31.0342
rtibia 2.70897
rfoot -12.8388 -26.1799
rtoes 7.70394
lfemur 0.598465 -39.1134 -3.51539
ltibia -3.64362
lfoot -11.4918 44.3524
ltoes -6.62997
290
root -0.413625 17.4958 9.25118 8.44063 4.51893 -9.61151
lowerback 4.62743 1.46607 15.7562
upperback -9.21115 3.8075 0.800138
thorax -12.0236 0.413868 -8.44771
lowerneck -14.8347 4.87905 4.16858
upperneck 30.6411 5.65804 1.13113
head 12.7582 3.18398 0.59022
rclavicle -2.25621e-014 6.41081e-014
rhumerus -56.5637 52.1284 -104.37
rradius 112.867
rwrist -47.5542
rhand 6.35381 -72.8503
rfingers 7.12502
rthumb 31.6604 -259.876
lclavicle -2.25621e-014 6.41081e-014
lhumerus -61.0013 -39.2205 107.592
lradius 93.7787
lwrist 87.7596
lhand -42.3639 21.2204
lfingers 7.12502
lthumb -15.2457 50.6386
rfemur -3.69163 22.1917 31.0796
rtibia 2.79216
rfoot -12.8402 -26.0105
rtoes 7.72485
lfemur 0.507209 -38.9258 -3.40473
ltibia -3.53413
lfoot -11.5712 44.2605
ltoes -6.63673
291
root -0.41525 17.499 9.25359 8.28794 4.39902 -9.62638
lowerback 4.81241 1.477 15.7358
upperback -9.14822 3.8475 0.786806
thorax -12.0507 0.434251 -8.46546
lowerneck -14.8755 4.88062 4.1922
upperneck 30.4953 5.63991 1.15594
head 12.7067 3.1809 0.590767
rclavicle -6.79595e-015 -2.36554e-014
rhumerus -56.6312 51.7154 -104.486
rradius 112.854
rwrist -47.1456
rhand 7.24008 -72.971
rfingers 7.12502
rthumb 32.5042 -259.926
lclavicle -6.79595e-015 -2.36554e-014
lhumerus -61.3321 -39.0733 107.65
lradius 94.1755
lwrist 87.8137
lhand -42.4692 21.5159
lfingers 7.12502
lthumb -15.3472 50.9264
rfemur -3.5131 22.1394 31.1474
rtibia 2.79224
rfoot -12.8465 -25.8626
rtoes 7.70438
lfemur 0.813887 -39.0904 -3.61059
ltibia -3.52501
lfoot -11.7405 44.4675
ltoes -6.51739
292
root -0.415922 17.5024 9.25695 8.1159 4.32273 -9.65559
lowerback 5.01127 1.50012 15.7277
upperback -9.07341 3.90493 0.755946
thorax -12.0661 0.462385 -8.51271
lowerneck -15.0585 4.84243 4.18962
upperneck 30.4441 5.56298 1.18815
head 12.7217 3.14917 0.595905
rclavicle -1.0225e-014 -1.35174e-014
rhumerus -56.8099 51.2065 -104.694
rradius 112.82
rwrist -46.7226
rhand 7.93387 -73.084
rfingers 7.12502
rthumb 33.1641 -259.951
lclavicle -1.0225e-014 -1.35174e-014
lhumerus -61.8475 -39.0774 107.926
lradius 94.5741
lwrist 87.9377
lhand -42.6365 21.2755
lfingers 7.12502
lthumb -15.5083 50.6736
rfemur -3.30083 22.0507 31.2307
rtibia 2.76653
rfoot -12.8738 -25.721
rtoes 7.71313
lfemur 1.16957 -39.282 -3.81684
ltibia -3.58044
lfoot -11.8447 44.6737
ltoes -6.39496
293
root -0.421052 17.4994 9.24992 8.21568 4.42597 -9.69333
lowerback 5.03673 1.47779 15.6324
upperback -9.09127 3.87163 0.756768
thorax -12.1135 0.450378 -8.45693
lowerneck -15.2602 4.81094 4.09729
upperneck 30.378 5.4879 1.3213
head 12.7276 3.12115 0.654882
rclavicle 3.10601e-016 3.67752e-014
rhumerus -57.0758 50.8343 -105.036
rradius 112.767
rwrist -46.5312
rhand 8.20554 -73.1652
rfingers 7.12502
rthumb 33.4224 -259.925
lclavicle 3.10601e-016 3.67752e-014
lhumerus -62.4502 -39.0901 108.302
lradius 95.0749
lwrist 88.4419
lhand -43.1949 20.3409
lfingers 7.12502
lthumb -16.0461 49.6964
rfemur -3.48046 22.0419 31.2376
rtibia 2.83634
rfoot -13.0177 -25.7372
rtoes 8.04347
lfemur 0.791662 -38.8721 -3.48833
ltibia -3.49184
lfoot -11.5251 44.2519
ltoes -6.71887
294
root -0.424722 17.4963 9.24178 8.30406 4.55526 -9.69376
lowerback 5.06147 1.4393 15.4864
upperback -9.09484 3.8092 0.759991
thorax -12.1515 0.43091 -8.36638
lowerneck -15.2892 4.77902 4.01892
upperneck 30.1402 5.42559 1.42209
head 12.6287 3.09641 0.691735
rclavicle 2.01269e-015 3.07122e-014
rhumerus -57.2767 50.5693 -105.376
rradius 112.616
rwrist -46.5906
rhand 8.37399 -73.2779
rfingers 7.12502
rthumb 33.5825 -259.847
lclavicle 2.01269e-015 3.07122e-014
lhumerus -62.8551 -39.1389 108.62
lradius 95.4419
lwrist 88.7791
lhand -43.6005 20.4399
lfingers 7.12502
lthumb -16.4366 49.7635
rfemur -3.65093 22.058 31.2144
rtibia 2.92283
rfoot -13.1273 -25.8134
rtoes 8.13233
lfemur 0.388028 -38.4067 -3.20624
ltibia -3.3613
lfoot -11.2976 43.7465
ltoes -6.91804
